<svg xmlns="http://www.w3.org/2000/svg" viewBox="0 0 400 400" width="100%" height="100%">
  <defs>
    <linearGradient id="civBg" x1="0" y1="0" x2="1" y2="1">
      <stop offset="0%" stop-color="#075985"/>
      <stop offset="100%" stop-color="#0c4a6e"/>
    </linearGradient>
  </defs>
  <rect width="400" height="400" fill="url(#civBg)"/>
  <circle cx="200" cy="190" r="140" fill="#0284c7" opacity="0.3"/>

  <!-- Blazer Shoulders -->
  <path d="M 70,400 L 120,290 L 165,300 L 200,340 L 235,300 L 280,290 L 330,400 Z" fill="#0f172a"/>
  <!-- Light Blue Shirt -->
  <polygon points="160,250 200,315 175,325 150,265" fill="#e0f2fe"/>
  <polygon points="240,250 200,315 225,325 250,265" fill="#e0f2fe"/>
  <!-- Dark Blue Tie -->
  <polygon points="190,265 210,265 218,360 200,380 182,360" fill="#1e3a8a"/>
  <polygon points="190,265 210,265 208,280 192,280" fill="#172554"/>

  <!-- Lapels -->
  <polygon points="120,290 170,360 160,250" fill="#1e293b"/>
  <polygon points="280,290 230,360 240,250" fill="#1e293b"/>

  <!-- Head & Face -->
  <rect x="175" y="210" width="50" height="55" fill="#e2a77b" rx="4"/>
  <ellipse cx="200" cy="175" rx="54" ry="64" fill="#e2a77b"/>
  <ellipse cx="146" cy="180" rx="9" ry="15" fill="#c98a5e"/>
  <ellipse cx="254" cy="180" rx="9" ry="15" fill="#c98a5e"/>

  <!-- Side-parted Hair -->
  <path d="M 146,165 C 146,105 160,95 200,95 C 240,95 254,105 254,165 C 245,120 235,110 200,110 C 165,110 155,120 146,165 Z" fill="#262626"/>

  <!-- Eyebrows -->
  <path d="M 165,160 Q 180,154 190,160" stroke="#262626" stroke-width="4" stroke-linecap="round" fill="none"/>
  <path d="M 210,160 Q 220,154 235,160" stroke="#262626" stroke-width="4" stroke-linecap="round" fill="none"/>
  <!-- Glasses -->
  <rect x="160" y="163" width="34" height="22" rx="4" fill="none" stroke="#475569" stroke-width="2.5"/>
  <rect x="206" y="163" width="34" height="22" rx="4" fill="none" stroke="#475569" stroke-width="2.5"/>
  <line x1="194" y1="172" x2="206" y2="172" stroke="#475569" stroke-width="2.5"/>
  <circle cx="177" cy="174" r="3.5" fill="#1e293b"/>
  <circle cx="223" cy="174" r="3.5" fill="#1e293b"/>
  <path d="M 200,172 L 197,196 L 204,196" fill="none" stroke="#c98a5e" stroke-width="2.5" stroke-linecap="round"/>
  <path d="M 188,216 Q 200,223 212,216" fill="none" stroke="#9a3412" stroke-width="3" stroke-linecap="round"/>
</svg>
